<svg id="Layer_1" data-name="Layer 1" xmlns="http://www.w3.org/2000/svg" viewBox="0 0 398.61 148.92"><defs><style>.cls-1{fill:#333;}.cls-2{fill:#09f;}</style></defs><polygon class="cls-1" points="64.94 104.03 96.97 37.05 148.93 148.93 64.94 104.03"/><polygon class="cls-2" points="0 124 30.37 148.55 74.46 58.69 42.86 34.14 0 124"/><polygon class="cls-2" points="46.63 27.89 77 51.58 90.73 24.12 59.93 0 46.63 27.89"/><path class="cls-2" d="M184.5,104.7V58h7.78V104.7Z" transform="translate(-28.69 -33.06)"/><path class="cls-2" d="M225.34,104.7l-13.83-39h-.25c.41,5.77.58,11.23.58,16.29V104.7h-7V58h11l13.18,37.17h.16L242.69,58h11V104.7h-7.44V81.63c0-2.34.08-5.38.16-9s.25-6,.33-6.78h-.25L232.13,104.7Z" transform="translate(-28.69 -33.06)"/><path class="cls-2" d="M297.76,72.12c0,4.91-1.63,8.58-4.91,11.23s-7.85,3.89-13.91,3.89H274V104.7h-7.77V58H280c6,0,10.4,1.16,13.34,3.58S297.76,67.45,297.76,72.12ZM274,80.77h4.09c4,0,7-.7,8.76-2s2.78-3.51,2.78-6.39c0-2.65-.82-4.68-2.54-6s-4.25-2-7.77-2H274V80.77Z" transform="translate(-28.69 -33.06)"/><path class="cls-2" d="M336.8,104.7l-4.75-12.94H313.88l-4.66,12.94H301l17.75-46.92h8.43L345,104.7ZM330,85.14l-4.41-12.71c-.33-.85-.74-2.18-1.31-4.05s-1-3.19-1.23-4a76.88,76.88,0,0,1-2.54,8.57l-4.25,12.16H330Z" transform="translate(-28.69 -33.06)"/><path class="cls-2" d="M371.58,63.86q-6.75,0-10.56,4.68c-2.54,3.12-3.85,7.4-3.85,12.86,0,5.69,1.23,10,3.69,13s6.05,4.45,10.72,4.45a29.67,29.67,0,0,0,5.89-.63c1.88-.39,3.84-.93,5.89-1.48v6.55a36,36,0,0,1-12.68,2.1c-7,0-12.28-2.1-16-6.23s-5.57-10.06-5.57-17.77a28.2,28.2,0,0,1,2.7-12.71,18.94,18.94,0,0,1,7.86-8.34,24.07,24.07,0,0,1,12-2.88,30.43,30.43,0,0,1,13.5,3l-2.78,6.39a36.33,36.33,0,0,0-5.08-2A14.61,14.61,0,0,0,371.58,63.86Z" transform="translate(-28.69 -33.06)"/><path class="cls-2" d="M413.31,104.7h-7.77V64.56h-14V58H427.3v6.54h-14Z" transform="translate(-28.69 -33.06)"/><path d="M203.93,155.42l-3.38,9h-4.34l11-28.53h5.07l11.1,28.53h-4.49l-3.47-9Zm10.67-2.88-3.19-8.21c-.72-1.87-1.2-3.56-1.69-5.21h-.09c-.49,1.69-1,3.43-1.64,5.17l-3.19,8.25Z" transform="translate(-28.69 -33.06)"/><path d="M228.21,164.39V135.86h4.58l10.42,14.44a76.64,76.64,0,0,1,5.84,9.26l.1,0a110.3,110.3,0,0,1-.48-11.72V135.86h4v28.53h-4.24l-10.33-14.48a87.2,87.2,0,0,1-6.08-9.52l-.15,0c.25,3.6.34,7,.34,11.77v12.19Z" transform="translate(-28.69 -33.06)"/><path d="M265.22,155.42l-3.38,9H257.5l11.05-28.53h5.06l11.1,28.53h-4.49l-3.47-9Zm10.66-2.88-3.18-8.21c-.73-1.87-1.21-3.56-1.69-5.21h-.1c-.48,1.69-1,3.43-1.64,5.17l-3.18,8.25Z" transform="translate(-28.69 -33.06)"/><path d="M289.49,135.86h4.2V161.3h13.9v3.09h-18.1Z" transform="translate(-28.69 -33.06)"/><path d="M315.45,164.39V152.28l-10.28-16.42H310l4.58,7.88c1.26,2.15,2.22,3.89,3.24,5.88h.09c.92-1.86,2-3.73,3.28-5.88l4.69-7.88h4.77l-10.9,16.38v12.15Z" transform="translate(-28.69 -33.06)"/><path d="M342.14,139h-9.9v-3.13h24.08V139h-9.94v25.4h-4.24Z" transform="translate(-28.69 -33.06)"/><path d="M364.14,135.86v28.53h-4.2V135.86Z" transform="translate(-28.69 -33.06)"/><path d="M394.2,163.46a23.34,23.34,0,0,1-8.59,1.35c-9.16,0-16.06-5.08-16.06-14.43,0-8.93,6.9-15,17-15a19.5,19.5,0,0,1,7.72,1.27l-1,3a17.07,17.07,0,0,0-6.56-1.18c-7.63,0-12.7,4.27-12.7,11.76,0,7,4.59,11.47,12.5,11.47a18.79,18.79,0,0,0,6.85-1.18Z" transform="translate(-28.69 -33.06)"/><path d="M398.88,159.9a16.45,16.45,0,0,0,7.53,1.87c4.3,0,6.81-2,6.81-4.87,0-2.67-1.74-4.19-6.13-5.67-5.31-1.65-8.59-4.07-8.59-8.09,0-4.44,4.2-7.74,10.52-7.74a16.5,16.5,0,0,1,7.19,1.39l-1.16,3a14.32,14.32,0,0,0-6.18-1.36c-4.44,0-6.13,2.33-6.13,4.28,0,2.67,2,4,6.47,5.5,5.5,1.86,8.3,4.19,8.3,8.38,0,4.4-3.72,8.21-11.39,8.21a18.66,18.66,0,0,1-8.3-1.82Z" transform="translate(-28.69 -33.06)"/></svg>